<svg width="32" height="32" viewBox="0 0 32 32" fill="none" xmlns="http://www.w3.org/2000/svg">
<path d="M9.08533 5.688C7.70108 6.45667 6.56011 7.59811 5.792 8.98267M7.96667 2C6.546 2.40392 5.25213 3.16421 4.20786 4.2087C3.1636 5.2532 2.4036 6.54724 2 7.968M16 6.576C20.584 6.576 24 11 24 16C24 22.2587 26 24 26 24H6C6 24 8 22.292 8 16C8 11 11.416 6.576 16 6.576ZM16 6.576V4M18 28C18 28.5304 17.7893 29.0391 17.4142 29.4142C17.0391 29.7893 16.5304 30 16 30C15.4696 30 14.9609 29.7893 14.5858 29.4142C14.2107 29.0391 14 28.5304 14 28M22.9147 5.688C24.2998 6.45552 25.441 7.59724 26.208 8.98267M24.0333 2C25.454 2.40392 26.7479 3.16421 27.7921 4.2087C28.8364 5.2532 29.5964 6.54724 30 7.968" stroke="#58C063" stroke-width="2" stroke-linecap="round" stroke-linejoin="round"/>
</svg>
