<svg width="118" height="118" viewBox="0 0 118 118" fill="none" xmlns="http://www.w3.org/2000/svg">
<circle cx="58.9238" cy="58.9238" r="56.8004" fill="white" stroke="#E6E6E6" stroke-width="4.24676"/>
<circle cx="58.393" cy="58.3931" r="49.8994" fill="#58C063"/>
<path fill-rule="evenodd" clip-rule="evenodd" d="M39.1649 33.6121C44.4365 28.4177 51.5351 25.4981 58.9359 25.4805C66.3366 25.463 73.4491 28.3488 78.7453 33.5181H78.7516L78.8519 33.6121C89.964 44.5424 89.9859 62.0993 78.9835 72.9199L61.2073 90.4046C60.6209 90.9818 59.8311 91.3052 59.0084 91.3052C58.1856 91.3052 57.3958 90.9818 56.8095 90.4046L39.0332 72.9199C36.4234 70.3684 34.3498 67.3211 32.9341 63.9571C31.5183 60.5931 30.7891 56.9801 30.7891 53.3303C30.7891 49.6805 31.5183 46.0675 32.9341 42.7034C34.3498 39.3394 36.4234 36.2922 39.0332 33.7407L39.1649 33.6121ZM59.0005 41.1508C57.7656 41.1508 56.5428 41.3941 55.4019 41.8666C54.261 42.3392 53.2243 43.0319 52.3511 43.9051C51.4779 44.7783 50.7852 45.815 50.3126 46.9559C49.84 48.0968 49.5968 49.3197 49.5968 50.5546C49.5968 51.7895 49.84 53.0123 50.3126 54.1532C50.7852 55.2942 51.4779 56.3308 52.3511 57.204C53.2243 58.0773 54.261 58.7699 55.4019 59.2425C56.5428 59.7151 57.7656 59.9583 59.0005 59.9583C61.4946 59.9583 63.8865 58.9676 65.65 57.204C67.4135 55.4405 68.4043 53.0486 68.4043 50.5546C68.4043 48.0606 67.4135 45.6687 65.65 43.9051C63.8865 42.1416 61.4946 41.1508 59.0005 41.1508Z" fill="white"/>
</svg>
