<svg width="63" height="71" viewBox="0 0 63 71" fill="none" xmlns="http://www.w3.org/2000/svg">
<g filter="url(#filter0_d_73_6912)">
<path d="M31.4 5.8999C44.931 5.8999 55.9 16.8689 55.9 30.3999C55.9 42.5359 47.0758 52.6087 35.4938 54.5571L31.6696 62.3511C31.5597 62.5749 31.2403 62.5749 31.1305 62.3511L27.3053 54.5571C15.7237 52.6083 6.90002 42.5355 6.90002 30.3999C6.90002 16.8689 17.869 5.8999 31.4 5.8999Z" fill="#EFE05C"/>
</g>
<path d="M27.296 19.411C27.0668 16.9915 28.9697 14.8999 31.4 14.8999C33.8303 14.8999 35.7332 16.9915 35.5041 19.411L34.1046 34.1893C33.9725 35.5843 32.8012 36.6499 31.4 36.6499C29.9989 36.6499 28.8275 35.5843 28.6954 34.1893L27.296 19.411Z" fill="white"/>
<circle cx="31.4" cy="42.1812" r="2.71875" fill="white"/>
<defs>
<filter id="filter0_d_73_6912" x="2.43187e-05" y="-9.77516e-05" width="62.8" height="70.4191" filterUnits="userSpaceOnUse" color-interpolation-filters="sRGB">
<feFlood flood-opacity="0" result="BackgroundImageFix"/>
<feColorMatrix in="SourceAlpha" type="matrix" values="0 0 0 0 0 0 0 0 0 0 0 0 0 0 0 0 0 0 127 0" result="hardAlpha"/>
<feOffset dy="1"/>
<feGaussianBlur stdDeviation="3.45"/>
<feComposite in2="hardAlpha" operator="out"/>
<feColorMatrix type="matrix" values="0 0 0 0 0 0 0 0 0 0 0 0 0 0 0 0 0 0 0.18 0"/>
<feBlend mode="normal" in2="BackgroundImageFix" result="effect1_dropShadow_73_6912"/>
<feBlend mode="normal" in="SourceGraphic" in2="effect1_dropShadow_73_6912" result="shape"/>
</filter>
</defs>
</svg>
