<svg width="32" height="32" viewBox="0 0 32 32" fill="none" xmlns="http://www.w3.org/2000/svg">
<path d="M17.1174 23.5172C17.4392 23.1945 17.6001 22.7998 17.6001 22.3332C17.6001 21.8665 17.4392 21.4718 17.1174 21.1492C16.7956 20.8265 16.401 20.6656 15.9334 20.6665C15.4659 20.6674 15.0716 20.8287 14.7507 21.1505C14.4299 21.4723 14.2685 21.8665 14.2667 22.3332C14.265 22.7998 14.4263 23.1945 14.7507 23.5172C15.0752 23.8398 15.4694 24.0007 15.9334 23.9998C16.3974 23.999 16.7921 23.8376 17.1174 23.5158M14.7334 18.8665H17.2001C17.2001 18.1332 17.2836 17.5554 17.4508 17.1332C17.6179 16.711 18.0899 16.1332 18.8667 15.3998C19.4445 14.8221 19.9001 14.2718 20.2334 13.7492C20.5667 13.2265 20.7334 12.599 20.7334 11.8665C20.7334 10.6221 20.2779 9.66651 19.3667 8.99984C18.4556 8.33318 17.3779 7.99984 16.1334 7.99984C14.8667 7.99984 13.8392 8.33318 13.0508 8.99984C12.2623 9.66651 11.7121 10.4665 11.4001 11.3998L13.6001 12.2665C13.7112 11.8665 13.9614 11.4332 14.3507 10.9665C14.7401 10.4998 15.3343 10.2665 16.1334 10.2665C16.8445 10.2665 17.3779 10.4612 17.7334 10.8505C18.089 11.2398 18.2667 11.6674 18.2667 12.1332C18.2667 12.5776 18.1334 12.9945 17.8667 13.3838C17.6001 13.7732 17.2667 14.1341 16.8667 14.4665C15.889 15.3332 15.289 15.9887 15.0667 16.4332C14.8445 16.8776 14.7334 17.6887 14.7334 18.8665ZM16.0001 29.3332C14.1556 29.3332 12.4223 28.9834 10.8001 28.2838C9.17786 27.5843 7.76675 26.6341 6.56675 25.4332C5.36675 24.2323 4.41697 22.8212 3.71742 21.1998C3.01786 19.5785 2.66764 17.8452 2.66675 15.9998C2.66586 14.1545 3.01608 12.4212 3.71742 10.7998C4.41875 9.17851 5.36853 7.7674 6.56675 6.56651C7.76497 5.36562 9.17608 4.41584 10.8001 3.71718C12.4241 3.01851 14.1574 2.66829 16.0001 2.66651C17.8427 2.66473 19.5761 3.01496 21.2001 3.71718C22.8241 4.4194 24.2352 5.36918 25.4334 6.56651C26.6316 7.76384 27.5819 9.17496 28.2841 10.7998C28.9863 12.4247 29.3361 14.1581 29.3334 15.9998C29.3308 17.8416 28.9805 19.575 28.2828 21.1998C27.585 22.8247 26.6352 24.2358 25.4334 25.4332C24.2316 26.6305 22.8205 27.5807 21.2001 28.2838C19.5796 28.987 17.8463 29.3367 16.0001 29.3332ZM16.0001 26.6665C18.9779 26.6665 21.5001 25.6332 23.5667 23.5665C25.6334 21.4998 26.6668 18.9776 26.6668 15.9998C26.6668 13.0221 25.6334 10.4998 23.5667 8.43318C21.5001 6.36651 18.9779 5.33318 16.0001 5.33318C13.0223 5.33318 10.5001 6.36651 8.43342 8.43318C6.36675 10.4998 5.33342 13.0221 5.33342 15.9998C5.33342 18.9776 6.36675 21.4998 8.43342 23.5665C10.5001 25.6332 13.0223 26.6665 16.0001 26.6665Z" fill="#58C063"/>
</svg>
