<svg width="69" height="69" viewBox="0 0 69 69" fill="none" xmlns="http://www.w3.org/2000/svg">
<circle cx="34.4238" cy="34.4238" r="33.1833" fill="white" stroke="#E6E6E6" stroke-width="2.48099"/>
<path d="M22 23.194C22 21.0261 22 19.9421 22.422 19.1137C22.7931 18.3853 23.3853 17.7931 24.1137 17.422C24.9421 17 26.0261 17 28.194 17H39.0334C41.2013 17 42.2852 17 43.1136 17.422C43.842 17.7931 44.4342 18.3853 44.8054 19.1137C45.2273 19.9421 45.2273 21.0261 45.2273 23.194V48.9473C45.2273 49.888 45.2273 50.3583 45.0318 50.6157C44.9474 50.7277 44.8396 50.82 44.7159 50.8861C44.5922 50.9523 44.4557 50.9908 44.3157 50.999C43.9924 51.0184 43.6014 50.757 42.8194 50.2364L33.6137 44.0985L24.4079 50.2344C23.6259 50.757 23.2349 51.0184 22.9097 50.999C22.7701 50.9906 22.6339 50.9519 22.5106 50.8857C22.3873 50.8196 22.2798 50.7275 22.1955 50.6157C22 50.3583 22 49.888 22 48.9473V23.194Z" fill="#919191"/>
</svg>
