<svg width="32" height="32" viewBox="0 0 32 32" fill="none" xmlns="http://www.w3.org/2000/svg">
<path d="M18.6666 16V26.5067C18.7199 26.9067 18.5866 27.3333 18.2799 27.6133C18.1566 27.7369 18.0101 27.835 17.8488 27.9019C17.6875 27.9688 17.5146 28.0033 17.3399 28.0033C17.1653 28.0033 16.9924 27.9688 16.8311 27.9019C16.6698 27.835 16.5233 27.7369 16.3999 27.6133L13.7199 24.9333C13.5746 24.7911 13.4641 24.6172 13.397 24.4253C13.3299 24.2333 13.3081 24.0285 13.3333 23.8267V16H13.2933L5.61326 6.16C5.39674 5.88204 5.29904 5.52968 5.34151 5.17991C5.38399 4.83014 5.56318 4.5114 5.83993 4.29333C6.09326 4.10667 6.37326 4 6.6666 4H25.3333C25.6266 4 25.9066 4.10667 26.1599 4.29333C26.4367 4.5114 26.6159 4.83014 26.6583 5.17991C26.7008 5.52968 26.6031 5.88204 26.3866 6.16L18.7066 16H18.6666Z" fill="#58C063"/>
</svg>
