<svg width="69" height="69" viewBox="0 0 69 69" fill="none" xmlns="http://www.w3.org/2000/svg">
<circle cx="34.4238" cy="34.4238" r="33.1833" fill="white" stroke="#E6E6E6" stroke-width="2.48099"/>
<path fill-rule="evenodd" clip-rule="evenodd" d="M38.7536 21.811C39.5243 22.049 40.2609 22.355 40.9636 22.729L44.0797 20.859C44.4046 20.6641 44.7853 20.5834 45.1614 20.6296C45.5375 20.6758 45.8873 20.8463 46.1554 21.114L47.886 22.8446C48.1537 23.1127 48.3242 23.4625 48.3704 23.8386C48.4166 24.2147 48.3359 24.5954 48.141 24.9203L46.271 28.0364C46.645 28.7391 46.951 29.4757 47.189 30.2464L50.7131 31.1287C51.0807 31.2208 51.407 31.4331 51.6402 31.7318C51.8733 32.0306 52 32.3987 52 32.7777V35.2223C52 35.6013 51.8733 35.9694 51.6402 36.2682C51.407 36.5669 51.0807 36.7792 50.7131 36.8713L47.189 37.7536C46.951 38.5243 46.645 39.2609 46.271 39.9636L48.141 43.0797C48.3359 43.4046 48.4166 43.7853 48.3704 44.1614C48.3242 44.5375 48.1537 44.8873 47.886 45.1554L46.1554 46.886C45.8873 47.1537 45.5375 47.3242 45.1614 47.3704C44.7853 47.4166 44.4046 47.3359 44.0797 47.141L40.9636 45.271C40.2609 45.645 39.5243 45.951 38.7536 46.189L37.8713 49.7131C37.7792 50.0807 37.5669 50.407 37.2682 50.6402C36.9694 50.8733 36.6013 51 36.2223 51H33.7777C33.3987 51 33.0306 50.8733 32.7318 50.6402C32.4331 50.407 32.2208 50.0807 32.1287 49.7131L31.2464 46.189C30.4826 45.953 29.7427 45.6456 29.0364 45.271L25.9203 47.141C25.5954 47.3359 25.2147 47.4166 24.8386 47.3704C24.4625 47.3242 24.1127 47.1537 23.8446 46.886L22.114 45.1554C21.8463 44.8873 21.6758 44.5375 21.6296 44.1614C21.5834 43.7853 21.6641 43.4046 21.859 43.0797L23.729 39.9636C23.3544 39.2573 23.047 38.5174 22.811 37.7536L19.2869 36.8713C18.9196 36.7793 18.5935 36.5672 18.3603 36.2688C18.1272 35.9704 18.0004 35.6027 18 35.224V32.7794C18 32.4004 18.1267 32.0323 18.3598 31.7335C18.593 31.4348 18.9193 31.2225 19.2869 31.1304L22.811 30.2481C23.049 29.4774 23.355 28.7408 23.729 28.0381L21.859 24.922C21.6641 24.5971 21.5834 24.2164 21.6296 23.8403C21.6758 23.4642 21.8463 23.1144 22.114 22.8463L23.8446 21.114C24.1127 20.8463 24.4625 20.6758 24.8386 20.6296C25.2147 20.5834 25.5954 20.6641 25.9203 20.859L29.0364 22.729C29.7391 22.355 30.4757 22.049 31.2464 21.811L32.1287 18.2869C32.2207 17.9196 32.4328 17.5935 32.7312 17.3603C33.0296 17.1272 33.3973 17.0004 33.776 17H36.2206C36.5996 17 36.9677 17.1267 37.2665 17.3598C37.5652 17.593 37.7775 17.9193 37.8696 18.2869L38.7536 21.811ZM35 40.8C36.8035 40.8 38.5331 40.0836 39.8083 38.8083C41.0836 37.5331 41.8 35.8035 41.8 34C41.8 32.1965 41.0836 30.4669 39.8083 29.1917C38.5331 27.9164 36.8035 27.2 35 27.2C33.1965 27.2 31.4669 27.9164 30.1917 29.1917C28.9164 30.4669 28.2 32.1965 28.2 34C28.2 35.8035 28.9164 37.5331 30.1917 38.8083C31.4669 40.0836 33.1965 40.8 35 40.8Z" fill="#919191"/>
</svg>
