<svg width="92" height="92" viewBox="0 0 92 92" fill="none" xmlns="http://www.w3.org/2000/svg">
<g filter="url(#filter0_d_237_8153)">
<rect x="5.68945" y="3.854" width="78" height="78" rx="39" fill="#767171" shape-rendering="crispEdges"/>
<path d="M58.9446 56.7533H31.6446V35.3033H58.9446M53.0946 21.6533V25.5533H37.4946V21.6533H33.5946V25.5533H31.6446C29.4801 25.5533 27.7446 27.2888 27.7446 29.4533V56.7533C27.7446 57.7877 28.1555 58.7796 28.8869 59.511C29.6183 60.2424 30.6103 60.6533 31.6446 60.6533H58.9446C59.979 60.6533 60.971 60.2424 61.7023 59.511C62.4337 58.7796 62.8446 57.7877 62.8446 56.7533V29.4533C62.8446 28.419 62.4337 27.427 61.7023 26.6956C60.971 25.9642 59.979 25.5533 58.9446 25.5533H56.9946V21.6533M55.0446 43.1033H45.2946V52.8533H55.0446V43.1033Z" fill="white"/>
</g>
<defs>
<filter id="filter0_d_237_8153" x="4.16636e-05" y="-0.000113487" width="91.2141" height="91.2141" filterUnits="userSpaceOnUse" color-interpolation-filters="sRGB">
<feFlood flood-opacity="0" result="BackgroundImageFix"/>
<feColorMatrix in="SourceAlpha" type="matrix" values="0 0 0 0 0 0 0 0 0 0 0 0 0 0 0 0 0 0 127 0" result="hardAlpha"/>
<feOffset dx="0.917647" dy="2.75294"/>
<feGaussianBlur stdDeviation="3.30353"/>
<feComposite in2="hardAlpha" operator="out"/>
<feColorMatrix type="matrix" values="0 0 0 0 0 0 0 0 0 0 0 0 0 0 0 0 0 0 0.23 0"/>
<feBlend mode="normal" in2="BackgroundImageFix" result="effect1_dropShadow_237_8153"/>
<feBlend mode="normal" in="SourceGraphic" in2="effect1_dropShadow_237_8153" result="shape"/>
</filter>
</defs>
</svg>
